          <svg
            xmlns="http://www.w3.org/2000/svg"
            width="204"
            height="67"
            viewBox="0 0 204 67"
            fill="none"
          >
            <g filter="url(#filter0_d_1_1440)">
              <path
                d="M186.886 9H6.1138C2.73724 9 0 11.7372 0 15.1138V47.9634C0 51.3399 2.73724 54.0772 6.1138 54.0772H186.886C190.263 54.0772 193 51.3399 193 47.9634V15.1138C193 11.7372 190.263 9 186.886 9Z"
                fill="white"
              />
              <path
                d="M186.886 9.12744H6.11381C2.8076 9.12744 0.12738 11.8077 0.12738 15.1139V47.9635C0.12738 51.2697 2.8076 53.9499 6.11381 53.9499H186.886C190.193 53.9499 192.873 51.2697 192.873 47.9635V15.1139C192.873 11.8077 190.193 9.12744 186.886 9.12744Z"
                stroke="#1E1E1E"
                stroke-opacity="0.2"
                stroke-width="0.254742"
              />
              <path
                d="M32.5219 18.623H14.2367C11.6887 18.623 9.62311 20.6886 9.62311 23.2367V39.8403C9.62311 42.3884 11.6887 44.454 14.2367 44.454H32.5219C35.0699 44.454 37.1355 42.3884 37.1355 39.8403V23.2367C37.1355 20.6886 35.0699 18.623 32.5219 18.623Z"
                fill="#1E1E1E"
              />
              <path
                d="M23.2024 28.2886L15.8489 28.6104L17.1609 29.9545L21.9085 29.7467L23.2024 28.2886Z"
                fill="white"
              />
              <path
                d="M17.4165 37.2326L16.2034 38.6871L24.3565 38.33L23.0445 36.9858L17.4165 37.2326Z"
                fill="white"
              />
              <path
                d="M20.8107 33.7769L24.5696 29.7712L24.0028 28.2539L19.7367 32.8L20.8107 33.7769Z"
                fill="white"
              />
              <path
                d="M18.7684 33.8311L15.6364 37.1679L16.2038 38.6859L19.8534 34.7964L18.7684 33.8311Z"
                fill="white"
              />
              <path
                d="M15.849 28.6094L24.8154 36.7658L24.3567 38.3286L23.0447 36.9844L15.3903 30.1721L15.849 28.6094Z"
                fill="white"
              />
              <path
                d="M29.7567 24.4243L22.4025 24.746L23.7146 26.0902L28.4621 25.8824L29.7567 24.4243Z"
                fill="white"
              />
              <path
                d="M23.9708 33.3683L22.7571 34.8229L30.9103 34.4657L29.5989 33.1216L23.9708 33.3683Z"
                fill="white"
              />
              <path
                d="M27.3638 29.9139L31.1228 25.9081L30.5554 24.3901L26.2892 28.9363L27.3638 29.9139Z"
                fill="white"
              />
              <path
                d="M25.3216 29.9673L22.1902 33.3042L22.757 34.8222L26.4066 30.9326L25.3216 29.9673Z"
                fill="white"
              />
              <path
                d="M22.4021 24.7471L31.3685 32.9036L30.9098 34.4664L29.5984 33.1222L21.9434 26.3098L22.4021 24.7471Z"
                fill="white"
              />
              <path
                d="M49.6009 40.3372L46.221 35.322V40.3372H41.9471V24.2012H46.221V32.9016L49.6009 28.1044H54.7252L49.9061 34.2535L54.8124 40.3372H49.6009Z"
                fill="#1E1E1E"
              />
              <path
                d="M57.0416 26.9702C56.2856 26.9702 55.675 26.7667 55.2099 26.3596C54.7592 25.938 54.5339 25.4147 54.5339 24.7896C54.5339 24.15 54.7592 23.6194 55.2099 23.1978C55.675 22.7763 56.2856 22.5654 57.0416 22.5654C57.7828 22.5654 58.3792 22.7763 58.8295 23.1978C59.2946 23.6194 59.5271 24.15 59.5271 24.7896C59.5271 25.4147 59.2946 25.938 58.8295 26.3596C58.3792 26.7667 57.7828 26.9702 57.0416 26.9702ZM59.1566 28.1041V40.3369H54.8828V28.1041H59.1566Z"
                fill="#1E1E1E"
              />
              <path
                d="M59.7101 34.2099C59.7101 32.9452 59.9353 31.8404 60.3863 30.8955C60.8513 29.9506 61.4839 29.2237 62.2834 28.715C63.0829 28.2061 63.9695 27.9517 64.9439 27.9517C65.7286 27.9517 66.4262 28.1189 67.0367 28.4533C67.662 28.7731 68.1491 29.2165 68.4976 29.7834V24.2012H72.7939V40.3372H68.4976V38.6364C68.1632 39.2034 67.6908 39.654 67.0803 39.9884C66.4698 40.3227 65.75 40.4899 64.9218 40.4899C63.948 40.4899 63.0608 40.2355 62.2613 39.7267C61.4766 39.2179 60.8513 38.4911 60.3863 37.5461C59.9353 36.5867 59.7101 35.4746 59.7101 34.2099ZM68.5197 34.2099C68.5197 33.4249 68.3019 32.8071 67.8657 32.3564C67.4442 31.9058 66.9208 31.6805 66.2955 31.6805C65.6556 31.6805 65.1255 31.9058 64.704 32.3564C64.2824 32.7926 64.0713 33.4104 64.0713 34.2099C64.0713 34.9949 64.2824 35.62 64.704 36.0852C65.1255 36.5358 65.6556 36.7612 66.2955 36.7612C66.9208 36.7612 67.4442 36.5358 67.8657 36.0852C68.3019 35.6345 68.5197 35.0094 68.5197 34.2099Z"
                fill="#1E1E1E"
              />
              <path
                d="M79.258 40.4898C78.1529 40.4898 77.1645 40.3081 76.2926 39.9447C75.4348 39.5667 74.7513 39.0579 74.2427 38.4183C73.7481 37.7641 73.472 37.03 73.4137 36.2159H77.5572C77.6155 36.6084 77.7971 36.9137 78.102 37.1318C78.4076 37.3498 78.7855 37.4589 79.2359 37.4589C79.585 37.4589 79.8611 37.3861 80.0648 37.2408C80.2679 37.0954 80.3697 36.9065 80.3697 36.6739C80.3697 36.3686 80.2029 36.1432 79.8685 35.9979C79.5341 35.8525 78.9819 35.6926 78.2112 35.5181C77.3387 35.3437 76.6123 35.1475 76.0306 34.9294C75.4489 34.7114 74.9403 34.3552 74.504 33.8609C74.0825 33.3667 73.8721 32.698 73.8721 31.8548C73.8721 31.128 74.0684 30.4739 74.4605 29.8924C74.8532 29.2964 75.4275 28.8239 76.1834 28.475C76.954 28.1261 77.8768 27.9517 78.9524 27.9517C80.5513 27.9517 81.8092 28.3442 82.7253 29.1292C83.6407 29.9142 84.1714 30.9463 84.3169 32.2255H80.4569C80.3845 31.833 80.2102 31.535 79.9341 31.3315C79.6721 31.1134 79.3163 31.0044 78.8653 31.0044C78.5168 31.0044 78.2474 31.0698 78.0584 31.2007C77.8842 31.3315 77.7971 31.5132 77.7971 31.7458C77.7971 32.0366 77.9639 32.2619 78.2983 32.4218C78.6327 32.5672 79.1709 32.7198 79.912 32.8797C80.7986 33.0687 81.5331 33.2795 82.1141 33.5121C82.7105 33.7447 83.2265 34.1226 83.6628 34.6459C84.1131 35.1547 84.3383 35.8525 84.3383 36.7393C84.3383 37.4515 84.1279 38.0912 83.7064 38.6581C83.2989 39.2251 82.7105 39.6757 81.9399 40.0101C81.184 40.3299 80.29 40.4898 79.258 40.4898Z"
                fill="#1E1E1E"
              />
              <path
                d="M84.5595 34.2098C84.5595 32.9451 84.8209 31.8403 85.3442 30.8954C85.8676 29.9505 86.5947 29.2236 87.5249 28.7149C88.4698 28.206 89.546 27.9517 90.7523 27.9517C92.3077 27.9517 93.6158 28.3805 94.6773 29.2382C95.7388 30.0814 96.4216 31.2661 96.7272 32.7925H92.1917C91.9297 31.9929 91.4211 31.5932 90.6651 31.5932C90.127 31.5932 89.6981 31.8185 89.3785 32.2692C89.0729 32.7053 88.9208 33.3522 88.9208 34.2098C88.9208 35.0675 89.0729 35.7217 89.3785 36.1723C89.6981 36.623 90.127 36.8483 90.6651 36.8483C91.4358 36.8483 91.9444 36.4486 92.1917 35.649H96.7272C96.4216 37.1608 95.7388 38.3456 94.6773 39.2033C93.6158 40.0609 92.3077 40.4898 90.7523 40.4898C89.546 40.4898 88.4698 40.2354 87.5249 39.7266C86.5947 39.2178 85.8676 38.491 85.3442 37.546C84.8209 36.6011 84.5595 35.4891 84.5595 34.2098Z"
                fill="#1E1E1E"
              />
              <path
                d="M101.594 24.2012V40.3372H97.3196V24.2012H101.594Z"
                fill="#1E1E1E"
              />
              <path
                d="M115.362 28.1045V40.3373H111.065V38.5929C110.702 39.1453 110.201 39.596 109.561 39.9448C108.922 40.2792 108.187 40.4464 107.359 40.4464C105.934 40.4464 104.808 39.9812 103.979 39.0508C103.165 38.1059 102.758 36.8267 102.758 35.2131V28.1045H107.01V34.6679C107.01 35.3657 107.191 35.9181 107.555 36.3252C107.933 36.7177 108.427 36.9139 109.038 36.9139C109.663 36.9139 110.157 36.7177 110.521 36.3252C110.884 35.9181 111.065 35.3657 111.065 34.6679V28.1045H115.362Z"
                fill="#1E1E1E"
              />
              <path
                d="M120.885 29.8052C121.219 29.2237 121.692 28.7731 122.302 28.4533C122.913 28.1189 123.633 27.9517 124.461 27.9517C125.435 27.9517 126.314 28.2061 127.1 28.715C127.899 29.2237 128.525 29.9506 128.975 30.8955C129.44 31.8404 129.673 32.9452 129.673 34.2099C129.673 35.4746 129.44 36.5867 128.975 37.5461C128.525 38.4911 127.899 39.2179 127.1 39.7267C126.314 40.2355 125.435 40.4899 124.461 40.4899C123.633 40.4899 122.913 40.33 122.302 40.0101C121.692 39.6758 121.219 39.2179 120.885 38.6364V40.3372H116.612V24.2012H120.885V29.8052ZM125.333 34.2099C125.333 33.4104 125.116 32.7926 124.679 32.3564C124.258 31.9058 123.734 31.6805 123.109 31.6805C122.484 31.6805 121.954 31.9058 121.518 32.3564C121.096 32.8071 120.885 33.4249 120.885 34.2099C120.885 35.0094 121.096 35.6345 121.518 36.0852C121.954 36.5358 122.484 36.7612 123.109 36.7612C123.734 36.7612 124.258 36.5358 124.679 36.0852C125.116 35.62 125.333 34.9949 125.333 34.2099Z"
                fill="#1E1E1E"
              />
              <path
                d="M134.305 36.7831H139.517V40.3373H129.595V36.9575L134.458 31.6588H129.639V28.1045H139.343V31.4843L134.305 36.7831Z"
                fill="#1E1E1E"
              />
              <path
                d="M145.81 40.4898C144.589 40.4898 143.491 40.2354 142.518 39.7266C141.558 39.2178 140.802 38.491 140.25 37.546C139.697 36.6011 139.421 35.4891 139.421 34.2098C139.421 32.9451 139.697 31.8403 140.25 30.8954C140.817 29.9505 141.58 29.2236 142.539 28.7149C143.514 28.206 144.611 27.9517 145.832 27.9517C147.053 27.9517 148.144 28.206 149.103 28.7149C150.077 29.2236 150.84 29.9505 151.392 30.8954C151.959 31.8403 152.243 32.9451 152.243 34.2098C152.243 35.4746 151.959 36.5866 151.392 37.546C150.84 38.491 150.077 39.2178 149.103 39.7266C148.129 40.2354 147.031 40.4898 145.81 40.4898ZM145.81 36.7829C146.406 36.7829 146.9 36.5648 147.293 36.1287C147.7 35.6781 147.904 35.0384 147.904 34.2098C147.904 33.3812 147.7 32.7488 147.293 32.3128C146.9 31.8767 146.413 31.6586 145.832 31.6586C145.251 31.6586 144.763 31.8767 144.371 32.3128C143.979 32.7488 143.782 33.3812 143.782 34.2098C143.782 35.053 143.971 35.6926 144.349 36.1287C144.727 36.5648 145.214 36.7829 145.81 36.7829Z"
                fill="#1E1E1E"
              />
              <path
                d="M160.802 27.9951C162.212 27.9951 163.331 28.4676 164.16 29.4125C164.988 30.3428 165.402 31.6076 165.402 33.2066V40.337H161.129V33.7735C161.129 33.0758 160.947 32.5306 160.583 32.1381C160.22 31.7311 159.733 31.5276 159.122 31.5276C158.483 31.5276 157.981 31.7311 157.618 32.1381C157.255 32.5306 157.073 33.0758 157.073 33.7735V40.337H152.799V28.1041H157.073V29.8486C157.451 29.2962 157.96 28.8528 158.599 28.5184C159.239 28.1696 159.973 27.9951 160.802 27.9951Z"
                fill="#1E1E1E"
              />
              <path
                d="M178.253 34.079C178.253 34.4133 178.231 34.7477 178.187 35.0821H170.098C170.142 35.7507 170.323 36.2523 170.643 36.5866C170.977 36.9065 171.399 37.0664 171.907 37.0664C172.62 37.0664 173.128 36.7466 173.434 36.1069H177.992C177.803 36.9501 177.431 37.706 176.879 38.3747C176.342 39.0289 175.658 39.5449 174.829 39.9229C174.001 40.3008 173.085 40.4898 172.082 40.4898C170.875 40.4898 169.8 40.2354 168.855 39.7266C167.925 39.2178 167.19 38.491 166.652 37.546C166.129 36.6011 165.867 35.4891 165.867 34.2098C165.867 32.9306 166.129 31.8258 166.652 30.8954C167.176 29.9505 167.903 29.2236 168.833 28.7149C169.778 28.206 170.861 27.9517 172.082 27.9517C173.289 27.9517 174.357 28.1988 175.288 28.693C176.218 29.1873 176.945 29.8996 177.468 30.83C177.992 31.7458 178.253 32.8288 178.253 34.079ZM173.892 33.0105C173.892 32.4872 173.717 32.0802 173.368 31.7894C173.02 31.4842 172.584 31.3315 172.06 31.3315C171.537 31.3315 171.108 31.4769 170.773 31.7676C170.439 32.0438 170.221 32.4581 170.119 33.0105H173.892Z"
                fill="#1E1E1E"
              />
              <path
                d="M180.891 40.5114C180.135 40.5114 179.525 40.3079 179.059 39.9009C178.609 39.4793 178.384 38.9487 178.384 38.3091C178.384 37.6694 178.609 37.1389 179.059 36.7173C179.525 36.2957 180.135 36.085 180.891 36.085C181.632 36.085 182.228 36.2957 182.679 36.7173C183.144 37.1389 183.377 37.6694 183.377 38.3091C183.377 38.9342 183.144 39.4575 182.679 39.8791C182.228 40.3007 181.632 40.5114 180.891 40.5114Z"
                fill="#1E1E1E"
              />
            </g>
            <defs>
              <filter
                id="filter0_d_1_1440"
                x="-10.1897"
                y="0.848255"
                width="213.379"
                height="65.4565"
                filterUnits="userSpaceOnUse"
                color-interpolation-filters="sRGB"
              >
                <feFlood flood-opacity="0" result="BackgroundImageFix" />
                <feColorMatrix
                  in="SourceAlpha"
                  type="matrix"
                  values="0 0 0 0 0 0 0 0 0 0 0 0 0 0 0 0 0 0 127 0"
                  result="hardAlpha"
                />
                <feOffset dy="2.03793" />
                <feGaussianBlur stdDeviation="5.09484" />
                <feComposite in2="hardAlpha" operator="out" />
                <feColorMatrix
                  type="matrix"
                  values="0 0 0 0 0 0 0 0 0 0 0 0 0 0 0 0 0 0 0.05 0"
                />
                <feBlend
                  mode="normal"
                  in2="BackgroundImageFix"
                  result="effect1_dropShadow_1_1440"
                />
                <feBlend
                  mode="normal"
                  in="SourceGraphic"
                  in2="effect1_dropShadow_1_1440"
                  result="shape"
                />
              </filter>
            </defs>
          </svg>