<svg xmlns="http://www.w3.org/2000/svg" width="17" height="17" viewBox="0 0 17 17" fill="none">
  <g clip-path="url(#clip0_1_1497)">
    <path d="M16.8571 8.5332C16.8571 4.11495 13.2754 0.533203 8.85715 0.533203C4.4389 0.533203 0.857147 4.11495 0.857147 8.5332C0.857147 12.5262 3.78265 15.8359 7.60715 16.436V10.8457H5.5759V8.5332H7.60715V6.7707C7.60715 4.7657 8.80152 3.6582 10.6289 3.6582C11.5041 3.6582 12.4196 3.81445 12.4196 3.81445V5.7832H11.4109C10.4171 5.7832 10.1071 6.39989 10.1071 7.03258V8.5332H12.3259L11.9712 10.8457H10.1071V16.436C13.9316 15.8359 16.8571 12.5263 16.8571 8.5332Z" fill="#1877F2"/>
    <path d="M11.9712 10.8457L12.3259 8.5332H10.1071V7.03258C10.1071 6.39983 10.4171 5.7832 11.4109 5.7832H12.4196V3.81445C12.4196 3.81445 11.5041 3.6582 10.6288 3.6582C8.80152 3.6582 7.60715 4.7657 7.60715 6.7707V8.5332H5.5759V10.8457H7.60715V16.436C8.02066 16.5008 8.43859 16.5333 8.85715 16.5332C9.27571 16.5333 9.69364 16.5008 10.1071 16.436V10.8457H11.9712Z" fill="white"/>
  </g>
  <defs>
    <clipPath id="clip0_1_1497">
      <rect width="16" height="16" fill="white" transform="translate(0.857147 0.533203)"/>
    </clipPath>
  </defs>
</svg>