<svg xmlns="http://www.w3.org/2000/svg" width="17" height="17" viewBox="0 0 17 17" fill="none">
  <g clip-path="url(#clip0_1_1489)">
    <path d="M13.1071 0.533203H4.60715C2.53608 0.533203 0.857147 2.21214 0.857147 4.2832V12.7832C0.857147 14.8543 2.53608 16.5332 4.60715 16.5332H13.1071C15.1782 16.5332 16.8571 14.8543 16.8571 12.7832V4.2832C16.8571 2.21214 15.1782 0.533203 13.1071 0.533203Z" fill="url(#paint0_radial_1_1489)"/>
    <path d="M13.1071 0.533203H4.60715C2.53608 0.533203 0.857147 2.21214 0.857147 4.2832V12.7832C0.857147 14.8543 2.53608 16.5332 4.60715 16.5332H13.1071C15.1782 16.5332 16.8571 14.8543 16.8571 12.7832V4.2832C16.8571 2.21214 15.1782 0.533203 13.1071 0.533203Z" fill="url(#paint1_radial_1_1489)"/>
    <path d="M8.85771 2.2832C7.16033 2.2832 6.94727 2.29064 6.28065 2.32095C5.61527 2.35145 5.16108 2.45677 4.76371 2.61133C4.35258 2.77095 4.0039 2.98452 3.65652 3.33202C3.30883 3.67945 3.09527 4.02814 2.93515 4.43908C2.78015 4.83658 2.67471 5.29095 2.64477 5.95602C2.61496 6.6227 2.60715 6.83583 2.60715 8.53327C2.60715 10.2307 2.61465 10.4431 2.6449 11.1097C2.67552 11.7751 2.78083 12.2293 2.93527 12.6266C3.09502 13.0378 3.30858 13.3865 3.65608 13.7338C4.0034 14.0815 4.35208 14.2956 4.7629 14.4552C5.16058 14.6098 5.61483 14.7151 6.28008 14.7456C6.94677 14.7759 7.15965 14.7833 8.85696 14.7833C10.5545 14.7833 10.7669 14.7759 11.4335 14.7456C12.0989 14.7151 12.5536 14.6098 12.9513 14.4552C13.3622 14.2956 13.7104 14.0815 14.0576 13.7338C14.4053 13.3865 14.6188 13.0378 14.779 12.6268C14.9326 12.2293 15.0381 11.775 15.0694 11.1098C15.0993 10.4432 15.1071 10.2307 15.1071 8.53327C15.1071 6.83583 15.0993 6.62283 15.0694 5.95614C15.0381 5.29077 14.9326 4.83664 14.779 4.43927C14.6188 4.02814 14.4053 3.67945 14.0576 3.33202C13.71 2.98439 13.3623 2.77083 12.9509 2.61139C12.5525 2.45677 12.098 2.35139 11.4326 2.32095C10.766 2.29064 10.5537 2.2832 8.85577 2.2832H8.85771ZM8.29702 3.40952C8.46346 3.40927 8.64915 3.40952 8.85771 3.40952C10.5265 3.40952 10.7243 3.41552 11.3833 3.44545C11.9926 3.47333 12.3234 3.57514 12.5437 3.6607C12.8354 3.77395 13.0433 3.90939 13.262 4.1282C13.4807 4.34695 13.6161 4.55527 13.7296 4.84695C13.8152 5.06695 13.9171 5.3977 13.9449 6.00708C13.9748 6.66595 13.9813 6.86383 13.9813 8.53183C13.9813 10.1998 13.9748 10.3978 13.9449 11.0566C13.917 11.666 13.8152 11.9967 13.7296 12.2168C13.6164 12.5085 13.4807 12.7161 13.262 12.9348C13.0432 13.1535 12.8355 13.2889 12.5437 13.4022C12.3236 13.4881 11.9926 13.5897 11.3833 13.6176C10.7244 13.6475 10.5265 13.654 8.85771 13.654C7.18884 13.654 6.99102 13.6475 6.33221 13.6176C5.72283 13.5895 5.39208 13.4876 5.17158 13.4021C4.87996 13.2888 4.67158 13.1534 4.45283 12.9346C4.23408 12.7159 4.09871 12.5081 3.98515 12.2163C3.89958 11.9962 3.79765 11.6655 3.7699 11.0561C3.73996 10.3972 3.73396 10.1993 3.73396 8.53027C3.73396 6.86127 3.73996 6.66439 3.7699 6.00552C3.79777 5.39614 3.89958 5.06539 3.98515 4.84508C4.09846 4.55339 4.23408 4.34508 4.4529 4.12633C4.67165 3.90758 4.87996 3.77214 5.17165 3.65864C5.39196 3.5727 5.72283 3.47114 6.33221 3.44314C6.90877 3.41708 7.13221 3.40927 8.29702 3.40795V3.40952ZM12.194 4.44727C11.7799 4.44727 11.444 4.78289 11.444 5.19702C11.444 5.61108 11.7799 5.94702 12.194 5.94702C12.608 5.94702 12.944 5.61108 12.944 5.19702C12.944 4.78295 12.608 4.44702 12.194 4.44702V4.44727ZM8.85771 5.32358C7.08521 5.32358 5.64808 6.7607 5.64808 8.53327C5.64808 10.3058 7.08521 11.7423 8.85771 11.7423C10.6303 11.7423 12.0669 10.3058 12.0669 8.53327C12.0669 6.76077 10.6301 5.32358 8.85758 5.32358H8.85771ZM8.85771 6.44989C10.0083 6.44989 10.9411 7.38258 10.9411 8.53327C10.9411 9.68383 10.0083 10.6166 8.85771 10.6166C7.70708 10.6166 6.7744 9.68383 6.7744 8.53327C6.7744 7.38258 7.70708 6.44989 8.85771 6.44989Z" fill="white"/>
  </g>
  <defs>
    <radialGradient id="paint0_radial_1_1489" cx="0" cy="0" r="1" gradientUnits="userSpaceOnUse" gradientTransform="translate(5.10715 17.7655) rotate(-90) scale(15.8572 14.7484)">
      <stop stop-color="#FFDD55"/>
      <stop offset="0.1" stop-color="#FFDD55"/>
      <stop offset="0.5" stop-color="#FF543E"/>
      <stop offset="1" stop-color="#C837AB"/>
    </radialGradient>
    <radialGradient id="paint1_radial_1_1489" cx="0" cy="0" r="1" gradientUnits="userSpaceOnUse" gradientTransform="translate(-1.82292 1.68577) rotate(78.681) scale(7.08825 29.218)">
      <stop stop-color="#3771C8"/>
      <stop offset="0.128" stop-color="#3771C8"/>
      <stop offset="1" stop-color="#6600FF" stop-opacity="0"/>
    </radialGradient>
    <clipPath id="clip0_1_1489">
      <rect width="16" height="16" fill="white" transform="translate(0.857147 0.533203)"/>
    </clipPath>
  </defs>
</svg>