<svg xmlns="http://www.w3.org/2000/svg" width="17" height="17" viewBox="0 0 17 17" fill="none">
  <g clip-path="url(#clip0_1_1494)">
    <path d="M15.3571 0.908261H2.35715C2.06219 0.905259 1.77808 1.01939 1.56717 1.22561C1.35626 1.43184 1.23577 1.71331 1.23215 2.00826V15.0608C1.23643 15.3553 1.3572 15.6361 1.56804 15.8418C1.77888 16.0475 2.06261 16.1613 2.35715 16.1583H15.3571C15.6521 16.1606 15.936 16.0461 16.1468 15.8397C16.3576 15.6334 16.4782 15.352 16.4821 15.057V2.00451C16.4769 1.71042 16.3558 1.43029 16.1451 1.22502C15.9344 1.01974 15.6513 0.905908 15.3571 0.908261Z" fill="#0076B2"/>
    <path d="M3.48966 6.62451H5.75341V13.9083H3.48966V6.62451ZM4.62216 2.99951C4.8818 2.99951 5.13561 3.07652 5.35148 3.22079C5.56734 3.36507 5.73557 3.57013 5.83487 3.81003C5.93418 4.04993 5.9601 4.31389 5.90935 4.56853C5.85861 4.82316 5.73348 5.05702 5.5498 5.24053C5.36612 5.42404 5.13213 5.54894 4.87745 5.59944C4.62277 5.64995 4.35883 5.62378 4.11902 5.52424C3.87922 5.42471 3.67432 5.25629 3.53025 5.04029C3.38618 4.82428 3.30942 4.5704 3.30966 4.31076C3.30999 3.96288 3.44842 3.62936 3.69453 3.38349C3.94063 3.13762 4.27428 2.99951 4.62216 2.99951ZM7.17341 6.62451H9.34341V7.62451H9.37341C9.67591 7.05201 10.4134 6.44826 11.5147 6.44826C13.8072 6.44326 14.2322 7.95201 14.2322 9.90826V13.9083H11.9684V10.3645C11.9684 9.52076 11.9534 8.43451 10.7922 8.43451C9.63091 8.43451 9.43341 9.35451 9.43341 10.3095V13.9083H7.17341V6.62451Z" fill="white"/>
  </g>
  <defs>
    <clipPath id="clip0_1_1494">
      <rect width="16" height="16" fill="white" transform="translate(0.857147 0.533203)"/>
    </clipPath>
  </defs>
</svg>