<svg xmlns="http://www.w3.org/2000/svg" width="15" height="17" viewBox="0 0 15 17" fill="none">
  <g clip-path="url(#clip0_1_1500)">
    <path d="M11.3245 6.29415C12.355 7.03042 13.6174 7.46363 14.9809 7.46363V4.84129C14.7228 4.84134 14.4655 4.81442 14.213 4.76096V6.82512C12.8497 6.82512 11.5874 6.39197 10.5566 5.65575V11.0072C10.5566 13.6844 8.38527 15.8544 5.70698 15.8544C4.70764 15.8544 3.77876 15.5525 3.00717 15.0346C3.88783 15.9346 5.11597 16.4929 6.47465 16.4929C9.15316 16.4929 11.3246 14.3228 11.3246 11.6456V6.29415H11.3245ZM12.2718 3.64852C11.7451 3.07346 11.3993 2.33028 11.3245 1.50866V1.17139H10.5968C10.78 2.21563 11.4048 3.10777 12.2718 3.64852ZM4.70119 12.9803C4.40695 12.5947 4.24789 12.1229 4.24861 11.6379C4.24861 10.4135 5.24176 9.42077 6.46709 9.42077C6.6954 9.42065 6.92238 9.45569 7.14003 9.52466V6.84366C6.88568 6.80885 6.62902 6.79401 6.37247 6.79947V8.8862C6.15472 8.81718 5.92763 8.78216 5.6992 8.78237C4.47393 8.78237 3.48083 9.77503 3.48083 10.9996C3.48083 11.8655 3.97721 12.6151 4.70119 12.9803Z" fill="#FF004F"/>
    <path d="M10.5566 5.65569C11.5874 6.39191 12.8496 6.82507 14.213 6.82507V4.7609C13.4519 4.59886 12.7782 4.2014 12.2717 3.64852C11.4047 3.10772 10.7799 2.21558 10.5968 1.17139H8.68544V11.6455C8.68108 12.8666 7.68963 13.8552 6.46696 13.8552C5.74651 13.8552 5.1064 13.512 4.70105 12.9802C3.97719 12.6151 3.48075 11.8654 3.48075 10.9996C3.48075 9.77519 4.47385 8.78242 5.69912 8.78242C5.93388 8.78242 6.16014 8.81895 6.37239 8.88626V6.79952C3.74111 6.85387 1.62497 9.00272 1.62497 11.6455C1.62497 12.9648 2.15192 14.1608 3.0072 15.0347C3.77879 15.5525 4.70762 15.8545 5.70701 15.8545C8.38536 15.8545 10.5567 13.6843 10.5567 11.0072L10.5566 5.65569Z" fill="black"/>
    <path d="M14.213 4.76107V4.20305C13.5267 4.20409 12.854 4.012 12.2717 3.64873C12.7871 4.21271 13.4658 4.60163 14.213 4.76118M10.5967 1.17155C10.5793 1.07177 10.5659 0.971333 10.5566 0.870472V0.533203H7.91745V11.0074C7.91326 12.2284 6.92181 13.2171 5.69908 13.2171C5.35244 13.2176 5.01055 13.1366 4.70101 12.9805C5.10636 13.5122 5.74647 13.8554 6.46691 13.8554C7.68953 13.8554 8.68109 12.8668 8.6854 11.6458V1.1716L10.5967 1.17155ZM6.37251 6.79969V6.20553C6.15198 6.17539 5.92966 6.16031 5.70708 6.1604C3.02846 6.1604 0.857147 8.33055 0.857147 11.0074C0.857147 12.6857 1.7105 14.1648 3.00727 15.0348C2.15199 14.161 1.62504 12.9649 1.62504 11.6457C1.62504 9.00294 3.74112 6.85403 6.37251 6.79969Z" fill="#00F2EA"/>
  </g>
  <defs>
    <clipPath id="clip0_1_1500">
      <rect width="14.1241" height="16" fill="white" transform="translate(0.857147 0.533203)"/>
    </clipPath>
  </defs>
</svg>