<svg xmlns="http://www.w3.org/2000/svg" width="24" height="25" viewBox="0 0 24 25" fill="none">
<path d="M10 15.5332L15.19 12.5332L10 9.5332V15.5332ZM21.56 7.7032C21.69 8.1732 21.78 8.8032 21.84 9.6032C21.91 10.4032 21.94 11.0932 21.94 11.6932L22 12.5332C22 14.7232 21.84 16.3332 21.56 17.3632C21.31 18.2632 20.73 18.8432 19.83 19.0932C19.36 19.2232 18.5 19.3132 17.18 19.3732C15.88 19.4432 14.69 19.4732 13.59 19.4732L12 19.5332C7.81 19.5332 5.2 19.3732 4.17 19.0932C3.27 18.8432 2.69 18.2632 2.44 17.3632C2.31 16.8932 2.22 16.2632 2.16 15.4632C2.09 14.6632 2.06 13.9732 2.06 13.3732L2 12.5332C2 10.3432 2.16 8.7332 2.44 7.7032C2.69 6.8032 3.27 6.2232 4.17 5.9732C4.64 5.8432 5.5 5.7532 6.82 5.6932C8.12 5.6232 9.31 5.5932 10.41 5.5932L12 5.5332C16.19 5.5332 18.8 5.6932 19.83 5.9732C20.73 6.2232 21.31 6.8032 21.56 7.7032Z" fill="black"/>
</svg>