<svg xmlns="http://www.w3.org/2000/svg" width="23" height="17" viewBox="0 0 23 17" fill="none">
  <path d="M9.14286 11.9618L15.0743 8.5332L9.14286 5.10463V11.9618ZM22.3543 3.0132C22.5029 3.55035 22.6057 4.27035 22.6743 5.18463C22.7543 6.09892 22.7886 6.88749 22.7886 7.5732L22.8571 8.5332C22.8571 11.0361 22.6743 12.8761 22.3543 14.0532C22.0686 15.0818 21.4057 15.7446 20.3771 16.0303C19.84 16.1789 18.8571 16.2818 17.3486 16.3503C15.8629 16.4303 14.5029 16.4646 13.2457 16.4646L11.4286 16.5332C6.64 16.5332 3.65714 16.3503 2.48 16.0303C1.45143 15.7446 0.788572 15.0818 0.502857 14.0532C0.354286 13.5161 0.251429 12.7961 0.182857 11.8818C0.102857 10.9675 0.0685714 10.1789 0.0685714 9.4932L0 8.5332C0 6.03035 0.182857 4.19035 0.502857 3.0132C0.788572 1.98463 1.45143 1.32177 2.48 1.03606C3.01714 0.887489 4 0.784631 5.50857 0.71606C6.99429 0.63606 8.35429 0.601774 9.61143 0.601774L11.4286 0.533203C16.2171 0.533203 19.2 0.71606 20.3771 1.03606C21.4057 1.32177 22.0686 1.98463 22.3543 3.0132Z" fill="#FF2D2D"/>
</svg>